<?xml version="1.0" encoding="UTF-8"?>
<svg id="Vrstva_2" data-name="Vrstva 2" xmlns="http://www.w3.org/2000/svg" viewBox="0 0 192.98 198.37">
  <defs>
    <style>
      .cls-1 {
        fill: #0a4c4e;
      }
    </style>
  </defs>
  <g id="Vrstva_1-2" data-name="Vrstva 1">
    <g>
      <path class="cls-1" d="M85.35,92.27v-13.27h13.49c6.8,0,9.98,2.49,9.98,6.58s-3.18,6.69-9.98,6.69h-13.49ZM62.67,59.5v79.37h22.68v-27.1h10.43c7.37,0,9.75,1.02,11.9,7.37,2.5,7.71,2.15,13.27,6.46,19.73h23.24c-4.54-7.6-5.22-15.42-7.94-23.13-1.47-4.31-3.06-8.28-6.24-10.66-6.35-4.88-12.25-4.99-23.7-4.42v-3.4c2.72.23,5.67.45,8.5.45,11,0,23.7-3.06,23.7-16.67s-8.16-21.54-30.5-21.54h-38.55Z"/>
      <path class="cls-1" d="M185.34,97.77c-2.58,0-4.2,1.54-4.2,4.23s1.62,4.23,4.2,4.23,4.23-1.54,4.23-4.23-1.62-4.23-4.23-4.23"/>
      <path class="cls-1" d="M7.22,97.77c-2.58,0-4.2,1.54-4.2,4.23s1.62,4.23,4.2,4.23,4.23-1.54,4.23-4.23-1.62-4.23-4.23-4.23"/>
      <path class="cls-1" d="M184.5,114.63c-.53.77-.72,1.89-.83,3.21l-.66-.11c.44-2.12.48-3.56-1.01-4.83l-4.76-4.14-.8,4.82,4.18,3.41c1.02.82,1.01,1.16.81,2.37v.04s-5.8-.96-5.8-.96l-.73,4.4,15.41,2.55.73-4.4-5.79-.96.08-.48c.25-1.52.38-1.75,2.03-2.29,1.77-.57,3.39-.79,4.54-1.46l.8-4.82c-2.28,1.05-3.5,1.32-5.72,2.15-1.21.46-1.95.72-2.49,1.49M185.28,139.97l4.03-11.45-3.45-1.21-2.55,7.24-2.34-.82,2.18-6.19-3.37-1.19-2.18,6.19-2.12-.75,2.55-7.24-3.45-1.22-4.03,11.45,14.73,5.19ZM169.81,152.25c4.46,2.49,8.46,1.56,11.01-3,2.21-3.95,1.38-7.64-2.2-9.92l-2.58,3.7c1.78,1.15,2.35,2.61,1.38,4.35-1.09,1.95-3.07,2.24-5.41.94s-3.14-3.11-2.17-4.84c.82-1.46,1.93-1.86,3.07-1.43l1.77-4.12c-3.03-1.26-6.25.11-8.21,3.62-2.44,4.36-1.12,8.22,3.34,10.71M162.87,137.99l.6,1.13c.26.53.55.85,1.06,1.13l-.22.39c-.51-.28-.91-.38-1.5-.33l-1.28.1-1.94,3.47,5.64-.94,1.75-3.14-2.16-5.27-1.94,3.47ZM172.18,161.54l2.71-3.54-12.39-9.5-2.71,3.54,12.39,9.5ZM157.44,146.56l1.78,5.02,2.1-2.74-1.3-5.64-2.58,3.36ZM149.07,163.61l11.17,10.91,3.12-3.19-5.84-5.7c-1.85-1.81-2.68-2.21-4.36-3.17l.39-.56c1.69,1.31,2.42,1.96,4.33,2.95l7.83,4.09,4.74-4.85-11.17-10.91-3.12,3.19,5.84,5.7c1.85,1.81,2.68,2.21,4.36,3.17l-.39.56c-1.69-1.34-2.42-1.96-4.34-2.96l-7.81-4.07-4.74,4.85ZM147.8,179.05l-1.45-2.09,2.4-1.67c1.39-.97,2.1-.89,2.56-.23.46.66.28,1.35-1.11,2.32l-2.4,1.67ZM144.34,174.06l-1.2-1.72,2.04-1.41c1.17-.81,1.68-.71,2.06-.15.37.53.3,1.06-.87,1.88l-2.03,1.41ZM137.61,171.64l8.9,12.83,6.29-4.36c3.72-2.58,4.31-4.83,2.57-7.34-1.77-2.55-3.92-1.98-6.09-.48-.53.37-1.03.74-1.46,1.1l-.38-.55c.51-.27,1.07-.61,1.59-.96,1.61-1.12,2.73-2.76,1.43-4.63-1.41-2.03-3.38-2.17-6.91.29l-5.92,4.11ZM128.27,176.2l-4.35,2.03,6.91,4.68c1.71,1.17,2.27,1.92,3.1,3.68l1.61,3.46,4.04-1.89-1.61-3.46c-.82-1.76-1.05-2.66-.85-4.72l.85-8.3-4.35,2.03-.32,3.59c-.16,1.77.22,2.73,1.19,4.44l-.61.28c-.69-1.85-1.18-2.75-2.66-3.75l-2.96-2.07ZM117.6,186.57l-.68-2.52,2.56-.69c1.29-.35,2.02-.04,2.23.74.22.8-.26,1.43-1.55,1.78l-2.56.69ZM111.61,181.51l4.08,15.07,4.31-1.17-1.39-5.15,1.98-.54c1.4-.38,1.9-.31,2.64.79.87,1.34,1.09,2.41,2.24,3.41l4.42-1.19c-1.25-1.21-1.78-2.66-2.7-3.99-.5-.74-1.01-1.42-1.73-1.7-1.46-.6-2.58-.32-4.73.38l-.18-.65c.53-.1,1.1-.21,1.64-.35,2.09-.56,4.34-1.8,3.64-4.38-.69-2.56-2.66-3.67-6.9-2.52l-7.32,1.98ZM95.78,182.79l-4.79.18,4.55,6.99c1.11,1.74,1.35,2.65,1.42,4.59l.15,3.81,4.46-.17-.15-3.81c-.07-1.94.07-2.86,1.05-4.68l4.01-7.32-4.79.18-1.69,3.19c-.83,1.57-.86,2.6-.63,4.56l-.67.03c.08-1.97-.02-2.99-1-4.49l-1.93-3.05ZM99.24,177.46l-2.73,4.57,3.46-.13,3.51-4.6-4.24.16ZM85.84,190.25c-.78-.51-1.91-.67-3.23-.75l.09-.66c2.13.39,3.57.39,4.8-1.13l4.01-4.87-4.84-.68-3.3,4.27c-.8,1.04-1.14,1.03-2.35.86h-.04s.81-5.82.81-5.82l-4.42-.62-2.16,15.47,4.42.62.81-5.81.49.07c1.52.21,1.76.34,2.34,1.97.61,1.75.88,3.37,1.58,4.5l4.84.68c-1.11-2.25-1.41-3.46-2.3-5.66-.49-1.19-.77-1.93-1.55-2.45M70.35,178.13c-3.93-1.28-6.63-.11-7.46,2.46-.97,2.97,1.36,4.76,3.58,6.09,2,1.21,3.44,1.84,3.02,3.12-.26.78-1.14.97-2.56.51-1.66-.54-2.37-1.52-1.97-2.96l-4.4-.96c-.79,3.38,1.21,6.09,5.37,7.44,4.2,1.36,6.92.28,7.84-2.54,1.06-3.27-1.25-4.98-3.48-6.34-1.99-1.23-3.42-2.03-3.13-2.92.21-.64.97-.76,2.16-.38,1.29.42,1.87,1.03,1.78,1.96l4.4.96c.53-2.81-1.21-5.16-5.16-6.44M51.06,169.24l-7.62,13.63,3.9,2.18,3.98-7.13c1.26-2.26,1.43-3.16,1.92-5.03l.64.23c-.82,1.97-1.26,2.85-1.72,4.94l-1.9,8.62,5.92,3.31,7.62-13.63-3.89-2.18-3.98,7.13c-1.26,2.26-1.44,3.16-1.92,5.04l-.64-.23c.85-1.98,1.26-2.85,1.73-4.96l1.9-8.6-5.92-3.31ZM50.48,168.82l-3.47-2.8-5.77,7.16c-1.27,1.58-2.48,1.41-3.87.29-1.39-1.12-1.81-2.26-.54-3.84l5.77-7.16-3.47-2.8-5.91,7.33c-2.64,3.28-2.01,6.77,1.58,9.67,3.58,2.88,7.12,2.79,9.77-.5l5.92-7.35ZM25.89,155.99c2.04-1.73,4.08-1.78,5.49-.11,1.41,1.67,1.02,3.66-1.02,5.39-2.04,1.73-4.08,1.78-5.49.11-1.41-1.67-1.02-3.66,1.02-5.39M22.98,152.55c-3.9,3.3-4.32,7.51-1.08,11.34,3.24,3.83,7.46,4.12,11.36.82,3.9-3.3,4.32-7.51,1.08-11.34-3.24-3.83-7.46-4.12-11.36-.82M19,142.68l2.28-1.27,1.3,2.32c.65,1.17.53,1.95-.17,2.34-.72.4-1.45.1-2.11-1.07l-1.3-2.32ZM22.45,135.64l-13.63,7.62,2.18,3.89,4.65-2.6,1,1.79c.71,1.27.76,1.77-.12,2.75-1.08,1.17-2.07,1.64-2.77,3l2.23,3.99c.87-1.51,2.15-2.38,3.21-3.58.6-.67,1.13-1.32,1.23-2.09.23-1.56-.32-2.58-1.51-4.49l.58-.33c.22.49.47,1.02.74,1.5,1.06,1.89,2.8,3.78,5.14,2.47,2.32-1.3,2.92-3.47.77-7.31l-3.7-6.62ZM3.41,128.87l4.03,11.45,3.45-1.22-2.55-7.24,2.34-.82,2.18,6.19,3.37-1.18-2.18-6.19,2.12-.75,2.55,7.24,3.45-1.22-4.03-11.45-14.73,5.19ZM4.44,115.98l2.5-.48.55,2.87c.32,1.67-.04,2.28-.83,2.43-.79.15-1.35-.29-1.67-1.95l-.55-2.87ZM10.4,114.84l2.06-.4.47,2.43c.27,1.4-.04,1.83-.69,1.95-.64.12-1.1-.15-1.37-1.56l-.47-2.43ZM15.34,109.67l-15.34,2.94,1.44,7.51c.85,4.45,2.67,5.89,5.68,5.32,3.05-.58,3.4-2.79,2.9-5.37-.12-.64-.26-1.24-.41-1.78l.66-.13c.04.58.12,1.23.24,1.84.37,1.93,1.42,3.61,3.65,3.18,2.43-.46,3.35-2.21,2.54-6.44l-1.36-7.08Z"/>
      <path class="cls-1" d="M184.14,88.6c.24-.91.02-2.02-.34-3.3l.66-.13c.32,2.14.79,3.51,2.62,4.18l5.9,2.23-.92-4.8-5.11-1.75c-1.24-.42-1.35-.74-1.58-1.95v-.04s5.75-1.1,5.75-1.1l-.84-4.38-15.34,2.94.84,4.38,5.76-1.1.09.48c.29,1.51.25,1.77-1.11,2.85-1.46,1.14-2.9,1.92-3.75,2.94l.92,4.8c1.77-1.77,2.82-2.45,4.62-4,.97-.85,1.58-1.35,1.82-2.26M170.69,68.37l4.03,11.45,3.45-1.22-2.55-7.24,2.33-.82,2.18,6.19,3.37-1.19-2.18-6.19,2.12-.75,2.55,7.24,3.45-1.22-4.03-11.45-14.73,5.19ZM169.9,50.93c-4.46,2.49-5.76,6.39-3.21,10.94,2.21,3.95,5.78,5.18,9.6,3.32l-1.8-4.13c-1.92.92-3.46.63-4.43-1.1-1.09-1.95-.3-3.79,2.03-5.1,2.34-1.31,4.3-1.05,5.26.69.82,1.46.57,2.62-.39,3.36l2.59,3.67c2.66-1.92,3.18-5.38,1.22-8.88-2.44-4.36-6.41-5.26-10.87-2.76M185.67,52.49l-1.27-.08c-.59-.05-1.01.03-1.51.31l-.22-.39c.51-.28.8-.58,1.07-1.11l.59-1.15-1.94-3.47-2.15,5.29,1.75,3.13,5.62.92-1.94-3.47ZM159.83,51.16l2.72,3.54,12.39-9.5-2.71-3.54-12.39,9.5ZM178.13,40.82l-5.3.41,2.1,2.74,5.78.21-2.58-3.36ZM160.27,28.71l-11.17,10.91,3.12,3.19,5.84-5.7c1.85-1.81,2.27-2.62,3.27-4.28l.55.4c-1.35,1.66-2.02,2.37-3.05,4.26l-4.27,7.73,4.74,4.85,11.17-10.91-3.12-3.19-5.84,5.71c-1.85,1.81-2.27,2.62-3.27,4.28l-.55-.4c1.38-1.65,2.02-2.37,3.06-4.27l4.26-7.71-4.74-4.85ZM143.13,30.94l1.45-2.09,2.4,1.66c1.39.97,1.57,1.66,1.11,2.32-.46.66-1.16.74-2.56-.23l-2.4-1.66ZM146.59,25.95l1.19-1.72,2.04,1.41c1.17.81,1.25,1.33.87,1.88-.37.53-.89.66-2.06-.15l-2.03-1.41ZM146.5,18.8l-8.9,12.83,6.29,4.36c3.72,2.58,6.03,2.34,7.78-.18,1.77-2.55.48-4.37-1.69-5.87-.53-.37-1.06-.71-1.54-.99l.38-.55c.44.39.94.79,1.46,1.15,1.61,1.12,3.54,1.59,4.84-.28,1.41-2.04.84-3.92-2.69-6.37l-5.92-4.1ZM134.84,12.98l-4.35-2.03.85,8.3c.19,2.06,0,2.98-.83,4.73l-1.61,3.46,4.04,1.89,1.61-3.46c.82-1.76,1.37-2.51,3.07-3.69l6.91-4.68-4.35-2.03-2.96,2.07c-1.46,1.02-1.95,1.92-2.64,3.76l-.61-.28c.97-1.71,1.35-2.67,1.17-4.45l-.32-3.6ZM118.26,14.19l.68-2.52,2.56.69c1.29.35,1.77.99,1.56,1.76-.22.8-.95,1.11-2.24.76l-2.56-.69ZM115.63,6.8l-4.08,15.07,4.31,1.17,1.39-5.15,1.98.54c1.4.38,1.8.7,1.88,2.01.08,1.59-.27,2.63.21,4.08l4.42,1.2c-.47-1.68-.2-3.2-.32-4.8-.06-.89-.16-1.73-.64-2.35-.96-1.25-2.07-1.58-4.27-2.06l.18-.65c.5.18,1.05.38,1.59.52,2.09.57,4.66.64,5.36-1.95.69-2.56-.44-4.51-4.69-5.66l-7.32-1.98ZM96.32,5.05l-4.79-.18,4.01,7.32c.98,1.82,1.15,2.74,1.07,4.68l-.15,3.81,4.46.17.15-3.81c.07-1.94.29-2.85,1.4-4.59l4.55-6.99-4.79-.18-1.92,3.05c-.95,1.51-1.06,2.53-.98,4.49l-.67-.02c.23-1.96.2-2.98-.65-4.56l-1.69-3.19ZM100.17,0l-3.07,4.35,3.46.13,3.85-4.32-4.24-.16ZM85.87,13.88c-.9-.28-2.02-.12-3.31.17l-.09-.66c2.16-.21,3.54-.61,4.3-2.4l2.53-5.78-4.84.68-2,5.01c-.48,1.22-.81,1.31-2.02,1.48h-.04s-.81-5.81-.81-5.81l-4.42.62,2.16,15.47,4.42-.62-.81-5.81.49-.07c1.52-.21,1.78-.16,2.79,1.25,1.07,1.52,1.77,3,2.75,3.9l4.84-.68c-1.68-1.86-2.3-2.94-3.76-4.81-.79-1.01-1.27-1.65-2.16-1.93M65.1,10.02c-3.89,1.37-5.33,3.93-4.43,6.48,1.04,2.95,3.97,2.95,6.54,2.66,2.32-.25,3.85-.62,4.29.64.27.78-.31,1.46-1.72,1.96-1.64.58-2.8.23-3.36-1.16l-4.08,1.91c1.42,3.16,4.66,4.1,8.79,2.65,4.17-1.47,5.67-3.98,4.68-6.78-1.14-3.24-4.01-3.2-6.61-2.92-2.33.23-3.95.47-4.26-.41-.22-.63.31-1.2,1.49-1.61,1.28-.45,2.11-.32,2.6.48l4.08-1.91c-1.28-2.55-4.09-3.36-8.01-1.98M43.43,20.75l7.62,13.63,3.89-2.18-3.98-7.13c-1.26-2.26-1.94-2.88-3.28-4.27l.53-.42c1.25,1.73,1.77,2.57,3.31,4.05l6.35,6.14,5.92-3.31-7.62-13.63-3.9,2.18,3.98,7.13c1.26,2.26,1.94,2.88,3.28,4.27l-.53.42c-1.24-1.76-1.77-2.57-3.32-4.07l-6.33-6.12-5.92,3.31ZM40.46,22.66l-3.41,2.88,5.94,7.02c1.31,1.55.91,2.7-.45,3.86-1.36,1.15-2.57,1.35-3.88-.2l-5.94-7.02-3.41,2.88,6.08,7.19c2.72,3.22,6.26,3.26,9.79.28,3.51-2.97,4.09-6.47,1.36-9.68l-6.09-7.21ZM25.96,47.71c-2.04-1.73-2.43-3.72-1.02-5.39,1.41-1.67,3.44-1.62,5.49.11,2.04,1.73,2.43,3.72,1.02,5.39-1.41,1.67-3.44,1.62-5.49-.11M23.05,51.16c3.9,3.3,8.12,3.01,11.36-.82,3.24-3.83,2.83-8.04-1.08-11.34-3.9-3.3-8.12-3.01-11.36.82-3.24,3.83-2.83,8.04,1.08,11.34M16.75,59.73l-2.28-1.27,1.3-2.32c.65-1.17,1.39-1.47,2.09-1.08.72.4.84,1.19.19,2.36l-1.3,2.32ZM8.94,60.48l13.63,7.62,2.18-3.89-4.65-2.6,1-1.79c.71-1.27,1.11-1.58,2.41-1.34,1.56.31,2.49.9,4.01.78l2.23-3.99c-1.74.05-3.15-.58-4.74-.86-.88-.16-1.72-.27-2.43.05-1.45.62-2.03,1.62-3.03,3.65l-.59-.33c.3-.45.62-.93.9-1.42,1.06-1.89,1.75-4.36-.59-5.67-2.32-1.3-4.48-.67-6.63,3.17l-3.7,6.62ZM18.32,80.07l4.03-11.45-3.45-1.21-2.55,7.24-2.34-.82,2.18-6.19-3.37-1.19-2.18,6.19-2.13-.75,2.55-7.24-3.45-1.21-4.03,11.45,14.73,5.19ZM12.68,89.32l-2.5-.48.55-2.87c.32-1.67.88-2.1,1.67-1.95.79.15,1.15.76.83,2.43l-.55,2.87ZM6.72,88.18l-2.06-.39.47-2.43c.27-1.4.71-1.68,1.36-1.56.64.12.96.55.69,1.95l-.47,2.43ZM.22,91.16l15.34,2.94,1.44-7.52c.85-4.45-.31-6.46-3.31-7.04-3.05-.58-4.18,1.33-4.68,3.92-.12.64-.22,1.25-.28,1.81l-.66-.13c.18-.56.34-1.18.46-1.8.37-1.93.02-3.88-2.22-4.31-2.43-.47-3.93.81-4.74,5.04l-1.36,7.08Z"/>
    </g>
  </g>
</svg>